<svg xmlns="http://www.w3.org/2000/svg" xmlns:xlink="http://www.w3.org/1999/xlink" id="Layer_1" x="0px" y="0px" viewBox="0 0 32 32" style="enable-background:new 0 0 32 32;" xml:space="preserve">
<style type="text/css">
	.st0{fill:#FFFFFF;}
</style>
<g>
	<path class="st0" d="M1.05,5.39c0.3-0.5,0.5-0.5,1-0.4c2.7,0.9,5.5,1.6,8.3,1.9c0.9,0.1,1.8,0.2,2.7,0.3c0.1,0,0.3,0,0.4,0   c0.4,0.1,0.6,0.3,0.5,0.7c0,0.3-0.3,0.6-0.7,0.5c-0.7-0.1-1.5-0.1-2.2-0.2c-2.9-0.3-5.8-0.9-8.6-1.8h-0.1c0,0.5,0,0.9,0,1.3   c0,0.1,0.1,0.1,0.1,0.2c0.3,0.2,0.6,0.4,0.8,0.7c1.6,1.9,3.1,3.9,4.7,5.9c0.1,0.1,0.2,0.2,0.3,0.3c0.7-0.6,1.3-1.3,2-1.9   c0.5-0.5,1-0.8,1.7-0.9c1-0.1,1.8,0.2,2.5,0.8c1.3,1.2,2.6,2.4,3.9,3.6c0.8,0.7,1.6,1.5,2.4,2.2c0.1,0.1,0.3,0.2,0.4,0.2   c2.9-0.1,5.8,0.2,8.7,0.9h0.1c0-4.5,0-8.9,0-13.4c-0.7,0.2-1.3,0.4-1.9,0.6c-3,0.8-6.1,1.3-9.2,1.5c-0.4,0-0.7-0.2-0.7-0.5   c0-0.4,0.2-0.6,0.6-0.7c1.1-0.1,2.2-0.2,3.2-0.3c2.7-0.3,5.4-1,8-1.8c0.1,0,0.3-0.1,0.4-0.1c0.3,0,0.6,0.2,0.6,0.5   c0,0.1,0,0.2,0,0.3c0,6.8,0,13.5,0,20.3c0,0.6-0.3,0.9-1,0.7c-3.3-1.1-6.6-1.8-10-2.1c-2.7-0.2-5.4-0.2-8.1,0   c-3.4,0.3-6.6,1-9.8,2.1c-0.5,0.1-0.7,0.1-1-0.4C1.05,19.39,1.05,12.39,1.05,5.39z M2.25,9.29c0,5.3,0,10.5,0,15.8   c5.1-3.6,10.7-5.6,16.8-6.2c0-0.1,0-0.1,0-0.1c-1.9-1.7-3.7-3.5-5.6-5.2c-0.7-0.6-1.7-0.6-2.4,0c-0.6,0.5-1.1,1-1.6,1.5   c-0.2,0.2-0.4,0.3-0.5,0.5c0.1,0.3,0.4,0.6,0.5,0.8c0.1,0.1,0.1,0.3,0.1,0.5s-0.2,0.4-0.4,0.5c-0.3,0.1-0.5-0.1-0.7-0.3   c-1.2-1.5-2.4-3-3.6-4.5C4.05,11.49,3.25,10.39,2.25,9.29z M5.25,24.59c4.1-0.9,8.2-1.4,12.3-1.2c4.2,0.1,8.3,0.8,12.2,2.1   c0-1.5,0-3,0-4.5C21.15,18.89,12.95,20.09,5.25,24.59z"></path>
	<path class="st0" d="M21.55,12.29c0-1.8,1.5-3.3,3.3-3.3s3.3,1.5,3.3,3.3c0,1.9-1.5,3.3-3.4,3.3   C23.05,15.59,21.55,14.09,21.55,12.29z M26.95,12.29c0-1.2-1-2.1-2.1-2.1c-1.2,0-2.1,1-2.1,2.1c0,1.2,1,2.1,2.1,2.1   C26.05,14.39,27.05,13.49,26.95,12.29z"></path>
	<path class="st0" d="M16.65,7.89c0,0.3-0.2,0.6-0.6,0.6c-0.3,0-0.6-0.3-0.6-0.6c0-0.3,0.3-0.6,0.6-0.6   C16.45,7.29,16.65,7.59,16.65,7.89z"></path>
</g>
</svg>