<svg xmlns="http://www.w3.org/2000/svg" xmlns:xlink="http://www.w3.org/1999/xlink" id="Layer_1" x="0px" y="0px" viewBox="0 0 32 32" style="enable-background:new 0 0 32 32;" xml:space="preserve">
<style type="text/css">
	.st0{fill:#FFFFFF;}
</style>
<g>
	<path class="st0" d="M2.8,26.95c0-0.2,0-0.3,0-0.4c0-3.2,0-6.4,0-9.6c0-0.6,0.1-0.7,0.7-0.7c1.4,0,2.8,0,4.2,0   c0.3,0,0.5,0.1,0.6,0.4s-0.1,0.5-0.5,0.5c-1.2,0-2.4,0-3.6,0c-0.1,0-0.2,0-0.3,0c0,3.2,0,6.5,0,9.7c4.2,0,8.4,0,12.6,0   c0-0.1,0-0.2,0-0.3c0-1.4,0-2.9,0-4.3c0-0.3,0.1-0.5,0.4-0.6c0.3,0,0.5,0.2,0.6,0.6c0,1.4,0,2.9,0,4.3c0,0.1,0,0.2,0,0.4   c0.3,0,0.6,0,0.9,0c0.4,0,0.6,0.2,0.6,0.6c0,0.4,0,0.8,0,1.2c-0.2,1.3-1.2,2.1-2.5,2.1c-4.2,0-8.4,0-12.6,0c-0.3,0-0.7-0.1-0.9-0.2   c-0.9-0.4-1.4-1.1-1.5-2.1c0-0.3,0-0.7,0-1c0-0.4,0.2-0.5,0.6-0.6C2.2,26.95,2.5,26.95,2.8,26.95z M15.5,29.85   c1.7,0.2,2.6-0.5,2.4-1.9c-5.2,0-10.3,0-15.5,0c0,0.2,0,0.3,0,0.5c0,0.7,0.5,1.3,1.2,1.4c0.4,0.1,0.8,0,1.3,0c0-0.2,0-0.3,0-0.5   c0-0.3,0.2-0.5,0.5-0.5s0.5,0.2,0.5,0.5c0,0.2,0,0.3,0,0.5c2.9,0,5.8,0,8.7,0c0.1-0.8,0.2-1,0.5-1   C15.3,28.85,15.4,29.05,15.5,29.85z"></path>
	<path class="st0" d="M19.3,18.85c-0.2-0.4-0.4-0.7-0.6-1.1c-0.5-0.9-1-1.7-1.5-2.6c-0.1-0.1-0.1-0.4,0-0.6c0.1-0.1,0.3-0.2,0.5-0.2   c0.1,0,0.3,0.1,0.3,0.2c0.8,1.4,1.6,2.7,2.4,4.1c0.2,0.4,0.1,0.6-0.3,0.8c-1.6,0.6-3.1,1.2-4.7,1.8c-0.8,0.3-1.6,0.6-2.5,0.9   c0.3,0.5,0.6,1.1,0.9,1.6c0.4,0.7,0.1,1.5-0.6,1.9c-0.7,0.4-1.5,0.2-2-0.5c-0.1-0.1-0.1-0.2-0.2-0.3c-0.3-0.5-0.5-0.9-0.8-1.4   c-0.2,0.1-0.3,0.2-0.5,0.3c-0.7,0.4-1.4,0.4-2.1-0.1c-0.1-0.1-0.2-0.1-0.4,0c-0.3,0.1-0.6,0.3-0.9,0.3c-0.7,0.1-1.2-0.3-1.5-1   c-0.2-0.6,0-1.3,0.6-1.7c0.4-0.2,0.6-0.4,0.5-0.9c-0.1-0.6,0.3-1.1,0.8-1.5c0,0,0,0,0.1-0.1c2.2-1.1,4-2.8,5.9-4.4   c1-0.8,1.9-1.6,2.9-2.4c0.4-0.3,0.7-0.3,1,0.2c0.1,0.2,0.3,0.4,0.4,0.7s0.1,0.6-0.2,0.7c-0.2,0.1-0.5,0.1-0.7-0.2   c-0.1-0.1-0.1-0.2-0.2-0.3c-2,1.7-4.1,3.3-6.1,5c0.3,0.6,0.7,1.1,1,1.7c0.1,0.1,0.2,0.3,0.3,0.4c0.1,0.3,0.1,0.5-0.2,0.7   c-0.2,0.1-0.5,0.1-0.7-0.2c-0.4-0.6-0.7-1.2-1.1-1.8c0-0.1-0.1-0.2-0.2-0.3c-0.3,0.2-0.7,0.4-1,0.6c-0.2,0.1-0.5,0.3-0.7,0.4   c-0.5,0.3-0.6,0.8-0.3,1.3c0.3,0.5,0.6,1.1,0.9,1.6c0.3,0.5,0.9,0.7,1.3,0.4c2-1.3,4.3-2,6.5-2.8C16.9,19.65,18.1,19.25,19.3,18.85   z M11.1,23.05c0.3,0.6,0.6,1.1,1,1.7c0.1,0.3,0.4,0.3,0.7,0.2c0.2-0.1,0.3-0.4,0.2-0.6c-0.3-0.6-0.7-1.2-1-1.8   C11.6,22.75,11.4,22.95,11.1,23.05z M6.4,21.85c-0.6,0.3-0.8,0.6-0.6,0.9c0.2,0.3,0.5,0.3,1.1-0.1C6.7,22.35,6.6,22.15,6.4,21.85z"></path>
	<path class="st0" d="M30.6,6.05c0,0.9,0,1.9,0,2.8s-0.6,1.6-1.6,1.6c-1.9,0-3.8,0-5.6,0c-1,0-1.6-0.6-1.6-1.6c0-0.9,0-1.8,0-2.7   c0-0.4,0.2-0.6,0.5-0.6c0.3,0,0.5,0.2,0.5,0.6c0,0.9,0,1.8,0,2.7c0,0.4,0.2,0.6,0.6,0.6c1.9,0,3.7,0,5.6,0c0.4,0,0.6-0.2,0.6-0.6   c0-1.9,0-3.7,0-5.6c0-0.4-0.2-0.6-0.6-0.6c-1.9,0-3.7,0-5.6,0c-0.4-0.1-0.6,0.1-0.6,0.5c0,0.3,0,0.5,0,0.8s-0.2,0.5-0.5,0.5   s-0.5-0.2-0.5-0.5s0-0.7,0-1c0-0.7,0.6-1.4,1.4-1.4c2,0,4,0,6,0c0.8,0,1.4,0.7,1.4,1.5C30.6,4.05,30.6,5.05,30.6,6.05z"></path>
	<path class="st0" d="M21.8,21.05c0-0.9,0-1.9,0-2.8c0-1,0.6-1.6,1.6-1.6c1.9,0,3.8,0,5.6,0c1,0,1.6,0.6,1.6,1.6c0,0.9,0,1.8,0,2.7   c0,0.4-0.2,0.6-0.5,0.6s-0.5-0.2-0.5-0.6c0-0.9,0-1.8,0-2.7c0-0.4-0.2-0.6-0.6-0.6c-1.9,0-3.7,0-5.6,0c-0.4,0-0.6,0.2-0.6,0.6   c0,1.9,0,3.7,0,5.6c0,0.4,0.2,0.6,0.6,0.6c1.9,0,3.7,0,5.6,0c0.4,0,0.6-0.2,0.6-0.6c0-0.3,0-0.5,0-0.8s0.2-0.5,0.5-0.5   s0.5,0.2,0.5,0.5s0,0.7,0,1c0,0.7-0.6,1.4-1.4,1.4c-2,0-4,0-6,0c-0.8,0-1.4-0.7-1.4-1.5C21.8,23.05,21.8,22.05,21.8,21.05z"></path>
	<path class="st0" d="M1.4,10.35c0-1.2,0-2.5,0-3.7c0-0.5,0.2-0.6,0.6-0.6c1.8,0,3.7,0,5.5,0c0.5,0,0.6,0.2,0.6,0.6c0,2.5,0,5,0,7.5   c0,0.5-0.2,0.6-0.6,0.6c-1.8,0-3.7,0-5.5,0c-0.5,0-0.6-0.2-0.6-0.6C1.4,12.85,1.4,11.65,1.4,10.35z M2.4,6.95c0,2.3,0,4.5,0,6.8   c1.6,0,3.2,0,4.8,0c0-2.3,0-4.5,0-6.8c-0.1,0-0.1,0-0.2,0C5.5,6.95,3.9,6.95,2.4,6.95z"></path>
	<path class="st0" d="M17.9,5.45c0,2.4-2,4.4-4.4,4.4s-4.4-2-4.4-4.3c0-2.4,2-4.4,4.4-4.4S17.9,3.05,17.9,5.45z M16.9,5.55   c0-1.9-1.5-3.4-3.4-3.4s-3.4,1.5-3.4,3.4s1.5,3.4,3.4,3.4S16.9,7.35,16.9,5.55z"></path>
	<path class="st0" d="M24.2,21.05c0-1.1,0.9-1.9,2-1.9s1.9,0.9,1.9,2c0,1.1-0.9,1.9-2,1.9C25.1,23.05,24.2,22.15,24.2,21.05z    M26.2,22.05c0.5,0,1-0.4,1-1c0-0.5-0.4-1-1-1c-0.5,0-1,0.4-1,1C25.2,21.65,25.7,22.05,26.2,22.05z"></path>
	<path class="st0" d="M25.2,6.55c-0.8-0.1-1-0.2-1-0.5c0.1-0.6,0.6-0.5,1-0.5c0-0.2,0-0.3,0-0.5c0-0.8,0.6-1.4,1.4-1.4   c0.3,0,0.6,0,1,0c0.3,0,0.5,0.2,0.5,0.5s-0.2,0.5-0.5,0.5s-0.5,0-0.8,0c-0.5,0-0.7,0.2-0.7,0.7c0,0.1,0,0.2,0,0.3   c0.4,0.1,0.9-0.1,1,0.5c0,0.3-0.2,0.4-1,0.5c0,0.3,0,0.7,0,1c0,0.1,0,0.2,0,0.3c0,0.4-0.2,0.6-0.5,0.6s-0.5-0.2-0.5-0.6   C25.2,7.35,25.2,6.95,25.2,6.55z"></path>
	<path class="st0" d="M21.3,15.75c-0.3,0-0.5-0.2-0.6-0.4c0-0.3,0.1-0.5,0.4-0.5c0.8-0.2,1.6-0.3,2.4-0.5c0.3-0.1,0.6,0.1,0.7,0.4   c0.1,0.3-0.1,0.5-0.4,0.6c-0.8,0.2-1.5,0.3-2.3,0.5C21.4,15.75,21.4,15.75,21.3,15.75z"></path>
	<path class="st0" d="M18.5,11.85c-0.4,0-0.7-0.4-0.5-0.7c0.5-0.7,1-1.4,1.5-2c0.2-0.2,0.4-0.2,0.6-0.1c0.2,0.1,0.3,0.4,0.1,0.6   c-0.5,0.7-1,1.3-1.5,2C18.7,11.75,18.5,11.75,18.5,11.85z"></path>
	<path class="st0" d="M19.8,13.85c-0.1-0.1-0.3-0.2-0.4-0.4c0-0.1,0-0.4,0.1-0.5c0.7-0.5,1.3-1,2-1.5c0.2-0.2,0.5-0.1,0.6,0.1   c0.2,0.2,0.1,0.5-0.1,0.7c-0.5,0.4-1,0.7-1.4,1.1c-0.2,0.1-0.3,0.2-0.5,0.3C20.1,13.75,20,13.75,19.8,13.85z"></path>
	<path class="st0" d="M4.7,10.85c-0.3,0-0.6,0-0.9,0s-0.5-0.2-0.5-0.5s0.2-0.5,0.5-0.5c0.6,0,1.3,0,1.9,0c0.3,0,0.5,0.2,0.5,0.5   s-0.2,0.5-0.5,0.5S5.1,10.85,4.7,10.85z"></path>
	<path class="st0" d="M4.8,12.85c-0.3,0-0.6,0-0.9,0c-0.4,0-0.6-0.2-0.6-0.5s0.2-0.5,0.6-0.5c0.6,0,1.2,0,1.8,0   c0.4,0,0.6,0.2,0.6,0.5s-0.2,0.5-0.6,0.5C5.4,12.85,5.1,12.85,4.8,12.85z"></path>
	<path class="st0" d="M5.3,8.95c-0.2,0-0.3,0-0.5,0c-0.3,0-0.5-0.2-0.5-0.5s0.2-0.5,0.5-0.5s0.7,0,1,0s0.5,0.2,0.5,0.5   s-0.2,0.5-0.5,0.5C5.6,8.95,5.4,8.95,5.3,8.95z"></path>
	<path class="st0" d="M12.1,5.55c0-0.5,0-0.9,0-1.4s0.3-0.7,0.8-0.5c0.9,0.5,1.8,0.9,2.7,1.4c0.2,0.1,0.3,0.3,0.3,0.4   c0.1,0.2-0.1,0.4-0.3,0.5c-0.9,0.5-1.8,1-2.8,1.4c-0.4,0.2-0.8,0-0.8-0.5C12.1,6.45,12.1,5.95,12.1,5.55z M13.1,4.85   c0,0.5,0,0.9,0,1.3c0.4-0.2,0.9-0.4,1.3-0.7C13.9,5.25,13.5,5.05,13.1,4.85z"></path>
</g>
</svg>