<svg xmlns="http://www.w3.org/2000/svg" xmlns:xlink="http://www.w3.org/1999/xlink" id="Layer_1" x="0px" y="0px" viewBox="0 0 32 32" style="enable-background:new 0 0 32 32;" xml:space="preserve">
<style type="text/css">
	.st0{fill:#FFFFFF;}
</style>
<g>
	<path class="st0" d="M30.34,14.94c-0.22,0.56-0.64,0.76-1.23,0.74c-0.84-0.03-1.68-0.01-2.52-0.01c-0.1,0-0.2,0-0.33,0   c0,0.14,0,0.24,0,0.35c0,3.53,0,7.06,0,10.59c0,0.55-0.06,0.62-0.61,0.62c-1,0-2,0-3,0c-0.1,0-0.2,0-0.32,0c0,0.75,0,1.47,0,2.19   c0,0.48-0.1,0.58-0.57,0.58c-6.51,0-13.02,0-19.52,0c-0.48,0-0.58-0.1-0.58-0.57c0-3.22,0-6.44,0-9.66c0-0.47,0.1-0.57,0.58-0.57   c1.67,0,3.34,0,5.01,0c0.1,0,0.2,0,0.35,0c0-0.13,0-0.25,0-0.37c0-5.41,0-10.81,0-16.22c0-0.51,0.09-0.6,0.6-0.6   c4.12,0,8.24,0,12.35,0c0.27,0,0.48,0.08,0.67,0.27c1.59,1.6,3.19,3.2,4.79,4.79c0.18,0.18,0.26,0.36,0.25,0.62   c-0.01,0.69,0,1.38,0,2.11c0.12,0,0.22,0,0.32,0c0.83,0,1.66,0.02,2.49-0.01c0.59-0.02,1.03,0.16,1.28,0.73   C30.34,11.99,30.34,13.46,30.34,14.94z M8.32,19.2c0.12,0,0.23,0,0.34,0c4.37,0,8.74,0,13.11,0c0.46,0,0.56,0.1,0.56,0.56   c0,2.14,0,4.28,0,6.41c0,0.11,0,0.22,0,0.33c1.09,0,2.13,0,3.19,0c0-3.62,0-7.21,0-10.83c-0.12,0-0.22,0-0.32,0   c-1.15,0-2.3,0-3.45,0c-0.77,0-1.14-0.36-1.14-1.13c0-1.2,0-2.41,0-3.61c0-0.76,0.37-1.14,1.13-1.14c1.16,0,2.32,0,3.47,0   c0.1,0,0.2,0,0.3,0c0-0.67,0-1.31,0-1.96c-0.13,0-0.23,0-0.33,0c-1.39,0-2.78,0-4.17,0c-0.48,0-0.58-0.1-0.58-0.57   c0-1.41,0-2.82,0-4.23c0-0.1,0-0.2,0-0.29c-4.07,0-8.09,0-12.11,0C8.32,8.23,8.32,13.7,8.32,19.2z M21.6,19.93   c-6.42,0-12.81,0-19.2,0c0,3.12,0,6.22,0,9.33c6.41,0,12.8,0,19.2,0C21.6,26.15,21.6,23.05,21.6,19.93z M25.47,14.95   c1.25,0,2.5,0,3.75,0c0.36,0,0.4-0.04,0.4-0.41c0-1.2,0-2.41,0-3.61c0-0.38-0.04-0.42-0.41-0.42c-2.49,0-4.98,0-7.48,0   c-0.35,0-0.41,0.06-0.41,0.41c0,1.2,0,2.41,0,3.61c0,0.37,0.05,0.42,0.42,0.42C22.99,14.95,24.23,14.95,25.47,14.95z M21.18,3.32   c0,1.25,0,2.51,0,3.77c1.27,0,2.52,0,3.77,0C23.68,5.83,22.43,4.58,21.18,3.32z"></path>
	<path class="st0" d="M6.59,10.12c0,1.88,0,3.77,0,5.65c0,0.28-0.05,0.58-0.11,0.85c-0.15,0.61-0.34,1.22-0.51,1.83   c-0.06,0.2-0.14,0.37-0.39,0.37c-0.23,0-0.32-0.17-0.37-0.36c-0.2-0.7-0.39-1.4-0.58-2.1C4.59,16.25,4.57,16.12,4.57,16   c0-3.92,0-7.84,0-11.76c0-0.45,0.1-0.54,0.54-0.55c0.3,0,0.6,0,0.9,0c0.48,0,0.58,0.09,0.58,0.57C6.59,6.22,6.59,8.17,6.59,10.12z    M5.84,15.81c0-3.8,0-7.59,0-11.38c-0.19,0-0.35,0-0.53,0c0,3.8,0,7.59,0,11.38C5.51,15.81,5.67,15.81,5.84,15.81z M5.54,17.04   c0.02,0,0.04,0.01,0.05,0.01c0.05-0.16,0.1-0.32,0.15-0.5c-0.13,0-0.22,0-0.34,0C5.46,16.72,5.5,16.88,5.54,17.04z"></path>
	<path class="st0" d="M1.66,12.42c0-1.89,0-3.79,0-5.68c0-0.27,0.05-0.56,0.11-0.82C1.93,5.3,2.11,4.69,2.28,4.08   c0.06-0.2,0.14-0.37,0.39-0.37c0.23,0,0.32,0.17,0.37,0.36c0.2,0.71,0.4,1.42,0.59,2.13C3.66,6.3,3.67,6.42,3.67,6.53   c0,3.92,0,7.84,0,11.76c0,0.44-0.1,0.55-0.54,0.55c-0.33,0-0.65,0-0.98,0c-0.39-0.01-0.49-0.12-0.49-0.51   C1.66,16.36,1.66,14.39,1.66,12.42z M2.39,18.11c0.19,0,0.36,0,0.54,0c0-3.8,0-7.58,0-11.38c-0.19,0-0.36,0-0.54,0   C2.39,10.53,2.39,14.31,2.39,18.11z M2.49,5.99c0.13,0,0.22,0,0.35,0c-0.06-0.18-0.1-0.34-0.15-0.5c-0.02,0-0.04,0.01-0.05,0.01   C2.59,5.65,2.54,5.8,2.49,5.99z"></path>
	<path class="st0" d="M11.09,3.79c1,0.01,1.84,0.86,1.82,1.85c-0.02,1-0.84,1.81-1.83,1.81c-1,0-1.84-0.83-1.83-1.83   C9.25,4.62,10.09,3.78,11.09,3.79z M12.19,5.61c0-0.62-0.51-1.11-1.13-1.1c-0.6,0.01-1.1,0.51-1.1,1.11c0,0.61,0.52,1.13,1.13,1.12   C11.7,6.74,12.2,6.23,12.19,5.61z"></path>
	<path class="st0" d="M5.99,22.77c1.01-0.01,1.84,0.81,1.84,1.82c0,1-0.81,1.82-1.8,1.83c-1.01,0.01-1.84-0.8-1.85-1.81   C4.16,23.6,4.97,22.77,5.99,22.77z M7.11,24.59c0-0.62-0.51-1.12-1.12-1.12c-0.6,0.01-1.1,0.5-1.11,1.11   c-0.01,0.62,0.49,1.12,1.11,1.12C6.62,25.71,7.11,25.22,7.11,24.59z"></path>
	<path class="st0" d="M17.37,22.51c0.57,0,1.14,0,1.71,0c0.31,0,0.47,0.13,0.47,0.36c0,0.23-0.15,0.36-0.46,0.36   c-1.16,0-2.31,0-3.47,0c-0.31,0-0.46-0.13-0.46-0.37c0.01-0.22,0.16-0.35,0.45-0.35C16.19,22.5,16.78,22.51,17.37,22.51z"></path>
	<path class="st0" d="M17.34,24.29c0.59,0,1.17,0,1.76,0c0.29,0,0.44,0.13,0.44,0.35C19.53,24.91,19.36,25,19.13,25   c-1.18,0-2.37,0.01-3.55,0c-0.29,0-0.44-0.15-0.42-0.37c0.02-0.26,0.19-0.34,0.43-0.34C16.17,24.29,16.76,24.29,17.34,24.29z"></path>
	<path class="st0" d="M17.31,26.77c-0.56,0-1.12,0-1.68,0c-0.32,0-0.47-0.11-0.48-0.34c-0.01-0.24,0.15-0.37,0.48-0.37   c1.15,0,2.29,0,3.44,0c0.31,0,0.47,0.13,0.46,0.36c0,0.23-0.15,0.35-0.47,0.35C18.49,26.77,17.9,26.77,17.31,26.77z"></path>
	<path class="st0" d="M23.5,14.56c-1.02-0.03-1.81-0.85-1.79-1.87c0.02-1.01,0.87-1.82,1.88-1.79c1.01,0.03,1.81,0.88,1.77,1.89   C25.33,13.79,24.5,14.59,23.5,14.56z M23.54,11.62c-0.62,0-1.12,0.5-1.11,1.12c0,0.62,0.51,1.12,1.13,1.11   c0.6-0.01,1.1-0.51,1.1-1.11C24.66,12.12,24.16,11.62,23.54,11.62z"></path>
	<path class="st0" d="M27.25,12.47c-0.34,0-0.69,0-1.03,0c-0.23,0-0.41-0.08-0.43-0.34c-0.02-0.22,0.14-0.37,0.42-0.38   c0.72-0.01,1.43-0.01,2.15,0c0.28,0,0.44,0.14,0.43,0.37c-0.01,0.22-0.16,0.34-0.45,0.34C27.98,12.48,27.62,12.47,27.25,12.47z"></path>
	<path class="st0" d="M27.29,13.71c-0.36,0-0.73,0-1.09,0c-0.26,0-0.42-0.14-0.41-0.35c0.01-0.24,0.17-0.35,0.38-0.36   c0.75-0.01,1.49-0.01,2.24,0c0.22,0,0.38,0.11,0.38,0.36c0,0.22-0.15,0.35-0.41,0.35C28.02,13.71,27.65,13.71,27.29,13.71z"></path>
	<path class="st0" d="M11.57,5.62c0,0.26-0.21,0.48-0.47,0.49c-0.27,0.01-0.5-0.21-0.51-0.48c0-0.27,0.23-0.5,0.49-0.5   C11.34,5.14,11.57,5.37,11.57,5.62z"></path>
	<path class="st0" d="M6,25.08c-0.26,0-0.48-0.2-0.49-0.47c-0.01-0.28,0.2-0.5,0.48-0.5c0.27,0,0.48,0.2,0.49,0.46   C6.49,24.85,6.27,25.08,6,25.08z"></path>
	<path class="st0" d="M23.55,13.22c-0.28,0.01-0.5-0.21-0.5-0.48c0-0.26,0.21-0.48,0.47-0.48c0.27-0.01,0.5,0.21,0.5,0.49   C24.02,13,23.82,13.21,23.55,13.22z"></path>
</g>
</svg>