<svg xmlns="http://www.w3.org/2000/svg" xmlns:xlink="http://www.w3.org/1999/xlink" id="Layer_1" x="0px" y="0px" viewBox="0 0 32 32" style="enable-background:new 0 0 32 32;" xml:space="preserve">
<style type="text/css">
	.st0{fill:#FFFFFF;}
</style>
<g>
	<path class="st0" d="M1.63,4.22C1.67,4.11,1.7,3.99,1.74,3.88C2,3.15,2.68,2.63,3.46,2.6c0.49-0.02,0.99-0.01,1.49,0   c0.33,0,0.51,0.19,0.51,0.53c0.01,0.66,0,1.33,0,1.99c0,0.1,0,0.2,0,0.33c5.59,0,11.16,0,16.74,0c0,0.33,0,0.63,0,0.97   c-5.58,0-11.14,0-16.74,0c0,0.15,0,0.27,0,0.39c0,5.37,0,10.75,0,16.12c0,0.62-0.12,0.73-0.74,0.73c-0.36,0-0.71,0-1.07,0   c-0.63,0.01-1.06,0.39-1.06,0.95c0,0.56,0.44,0.97,1.08,0.97c4.12,0,8.25,0,12.37,0c0.13,0,0.26,0,0.42,0c0,0.32,0,0.62,0,0.96   c-0.11,0-0.22,0-0.33,0c-4.12,0-8.25-0.01-12.37,0.01c-0.99,0-1.86-0.53-2.08-1.55c-0.01-0.03-0.03-0.05-0.04-0.07   C1.63,18.02,1.63,11.12,1.63,4.22z M4.47,22.65c0-6.35,0-12.72,0-19.1c-0.26,0-0.49,0-0.72,0c-0.81,0-1.16,0.35-1.16,1.16   c0,5.97,0,11.93,0,17.89c0,0.1,0,0.2,0,0.24C3.22,22.78,3.84,22.71,4.47,22.65z"></path>
	<path class="st0" d="M14.87,30.36c-0.4-0.32-0.42-0.57-0.05-0.94c4.86-4.86,9.73-9.73,14.59-14.59c0.04-0.04,0.08-0.08,0.12-0.12   c0.16-0.15,0.36-0.22,0.53-0.1c0.13,0.09,0.26,0.28,0.28,0.44c0.04,0.31,0.01,0.63,0.01,0.95c0,4.57,0,9.14,0,13.71   c0,0.29-0.08,0.51-0.34,0.65C24.97,30.36,19.92,30.36,14.87,30.36z M29.39,16.3c-4.37,4.37-8.74,8.73-13.09,13.08   c4.34,0,8.72,0,13.09,0C29.39,25,29.39,20.64,29.39,16.3z"></path>
	<path class="st0" d="M23.14,15.05c-0.29-0.37-0.55-0.69-0.81-1.02c0.25-0.2,0.48-0.38,0.74-0.59c0.12,0.14,0.23,0.27,0.34,0.41   c0.35,0.43,0.7,0.86,1.03,1.3c0.09,0.12,0.17,0.28,0.18,0.43c0.01,1.07,0.01,2.13,0.01,3.2c0,0.03-0.01,0.05-0.03,0.09   c-0.29,0-0.59,0-0.92,0c0-0.94,0-1.88,0-2.84c-2.25,0-4.46,0-6.69,0c0,1.57,0,3.14,0,4.76c1.41,0,2.84,0,4.28,0   c0,0.33,0,0.63,0,0.95c-0.1,0.01-0.2,0.01-0.3,0.01c-3.98,0-7.97,0-11.95,0c-0.53,0-0.67-0.14-0.67-0.66c0-1.79,0-3.57,0-5.36   c0-0.26,0.08-0.46,0.24-0.66c1.2-1.49,2.4-2.99,3.59-4.49c0.15-0.18,0.3-0.31,0.56-0.31c1.67,0.01,3.35,0,5.02,0   c0.04,0,0.09,0.01,0.15,0.01c0,0.3,0,0.6,0,0.93c-1.39,0-2.78,0-4.22,0c0.06,0.1,0.09,0.16,0.13,0.22   c0.92,1.15,1.84,2.31,2.77,3.46c0.07,0.08,0.19,0.16,0.29,0.16C18.93,15.05,21,15.05,23.14,15.05z M15.99,16.02   c-2.24,0-4.45,0-6.67,0c0,1.59,0,3.17,0,4.75c0.48,0,0.93,0,1.41,0c0-0.12,0-0.22,0-0.32c0-0.96,0-1.92,0-2.89   c0-0.42,0.17-0.6,0.6-0.6c0.87,0,1.74,0,2.61,0c0.47,0,0.62,0.16,0.63,0.62c0,0.96,0,1.92,0,2.89c0,0.1,0,0.2,0,0.3   c0.5,0,0.96,0,1.43,0C15.99,19.17,15.99,17.61,15.99,16.02z M12.64,11.5c-0.95,1.19-1.87,2.34-2.81,3.52c1.89,0,3.74,0,5.63,0   C14.51,13.84,13.59,12.68,12.64,11.5z M13.58,17.93c-0.64,0-1.25,0-1.88,0c0,0.96,0,1.89,0,2.83c0.64,0,1.26,0,1.88,0   C13.58,19.81,13.58,18.88,13.58,17.93z"></path>
	<path class="st0" d="M19.34,13.31c-0.38,0.39-0.72,0.74-1.06,1.09c-0.23-0.23-0.44-0.45-0.68-0.69c0.35-0.33,0.71-0.68,1.1-1.05   c-0.39-0.27-0.28-0.58-0.19-0.93c0.22-0.88,0.7-1.56,1.34-2.2c2.56-2.51,5.09-5.07,7.63-7.6c0.4-0.4,0.58-0.4,0.98,0   c0.56,0.55,1.11,1.11,1.67,1.67c0.33,0.33,0.33,0.55-0.01,0.88c-2.8,2.8-5.6,5.61-8.41,8.4c-0.11,0.11-0.27,0.2-0.42,0.26   c-0.35,0.13-0.71,0.23-1.06,0.36C19.9,13.63,19.61,13.66,19.34,13.31z M22.96,7.84c0.4,0.41,0.8,0.81,1.19,1.19   c1.66-1.66,3.34-3.34,4.99-4.98c-0.39-0.39-0.8-0.79-1.19-1.18C26.29,4.51,24.62,6.18,22.96,7.84z M21.5,11.66   c0.63-0.63,1.27-1.26,1.88-1.88C23,9.39,22.6,8.99,22.22,8.61c-0.62,0.62-1.26,1.26-1.88,1.88C20.71,10.87,21.11,11.27,21.5,11.66z    M19.67,11.35c-0.22,0.39-0.34,0.78,0.16,1.11c0.35,0.23,0.57-0.13,0.88-0.11C20.34,12,20,11.67,19.67,11.35z"></path>
	<path class="st0" d="M20.29,19.83c-0.31,0-0.62,0.01-0.92,0c-0.31-0.01-0.49-0.18-0.5-0.49c-0.01-0.63-0.01-1.25,0-1.88   c0.01-0.32,0.2-0.5,0.52-0.5c0.61-0.01,1.21-0.01,1.82,0c0.34,0,0.52,0.18,0.52,0.52c0.01,0.61,0.01,1.21,0,1.82   c0,0.36-0.18,0.52-0.54,0.52C20.89,19.83,20.59,19.83,20.29,19.83C20.29,19.83,20.29,19.83,20.29,19.83z M19.84,18.86   c0.32,0,0.62,0,0.92,0c0-0.32,0-0.62,0-0.93c-0.32,0-0.61,0-0.92,0C19.84,18.24,19.84,18.54,19.84,18.86z"></path>
	<path class="st0" d="M26.56,8.84c0.31,0,0.61,0,0.92,0c0,2.22,0,4.43,0,6.66c-0.31,0-0.6,0-0.92,0   C26.56,13.29,26.56,11.07,26.56,8.84z"></path>
	<path class="st0" d="M8.32,22.7c0,0.33,0,0.63,0,0.94c-0.52,0-1.02,0.02-1.52-0.01c-0.24-0.01-0.37-0.21-0.38-0.45   c-0.01-0.47,0-0.93,0-1.42c0.32,0,0.62,0,0.96,0c0,0.25,0.01,0.49,0,0.73c-0.01,0.16,0.06,0.21,0.21,0.21   C7.82,22.7,8.06,22.7,8.32,22.7z"></path>
	<path class="st0" d="M8.31,7.4c0,0.31,0,0.61,0,0.93c-0.3,0-0.6,0-0.93,0c0,0.33,0,0.63,0,0.95c-0.33,0-0.63,0-0.95,0   c0-0.51-0.03-1.02,0.02-1.53c0.01-0.13,0.23-0.33,0.37-0.34C7.31,7.37,7.81,7.4,8.31,7.4z"></path>
	<path class="st0" d="M27.49,24.63c0,0.75,0,1.49,0,2.24c0,0.46-0.17,0.63-0.63,0.63c-1.5,0-3.01,0-4.51,0   c-0.25,0-0.47-0.05-0.57-0.31c-0.1-0.24,0.02-0.43,0.19-0.6c1.54-1.54,3.08-3.08,4.62-4.62c0.17-0.17,0.35-0.28,0.6-0.19   c0.26,0.1,0.31,0.32,0.31,0.57C27.49,23.11,27.49,23.87,27.49,24.63z M26.52,23.57c-0.98,0.98-1.99,1.99-2.95,2.95   c0.92,0,1.93,0,2.95,0C26.52,25.49,26.52,24.48,26.52,23.57z"></path>
</g>
</svg>